HIERARCHY
ROOT __0
{
	OFFSET 0.0 0.0 0.0
	CHANNELS 0
	JOINT IKLegTarget.L
	{
		OFFSET -0.211553 -0.070982 0.073421
		CHANNELS 6 Xposition Yposition Zposition Xrotation Yrotation Zrotation
		End Site
		{
			OFFSET 0.000000 -0.191920 0.000000
		}
	}
	JOINT IKLPole.L
	{
		OFFSET -0.192917 0.630369 0.778434
		CHANNELS 6 Xposition Yposition Zposition Xrotation Yrotation Zrotation
		End Site
		{
			OFFSET 0.000000 0.288052 -0.000000
		}
	}
	JOINT IKLegTarget.R
	{
		OFFSET 0.211553 -0.070982 0.073421
		CHANNELS 6 Xposition Yposition Zposition Xrotation Yrotation Zrotation
		End Site
		{
			OFFSET 0.000000 -0.191920 0.000000
		}
	}
	JOINT IKLPole.R
	{
		OFFSET 0.192917 0.630369 0.778434
		CHANNELS 6 Xposition Yposition Zposition Xrotation Yrotation Zrotation
		End Site
		{
			OFFSET -0.000000 0.288052 -0.000000
		}
	}
	JOINT hip
	{
		OFFSET 0.000000 0.000000 1.000000
		CHANNELS 6 Xposition Yposition Zposition Xrotation Yrotation Zrotation
		JOINT spine
		{
			OFFSET 0.000000 0.010257 0.185956
			CHANNELS 3 Xrotation Yrotation Zrotation
			JOINT spine.001
			{
				OFFSET 0.000000 -0.047000 0.404963
				CHANNELS 3 Xrotation Yrotation Zrotation
				JOINT Head
				{
					OFFSET 0.000000 0.038275 0.295777
					CHANNELS 3 Xrotation Yrotation Zrotation
					End Site
					{
						OFFSET 0.000000 0.000000 0.485327
					}
				}
				JOINT shoulder.L
				{
					OFFSET -0.195757 0.038275 0.182789
					CHANNELS 6 Xposition Yposition Zposition Xrotation Yrotation Zrotation
					JOINT upperArm.L
					{
						OFFSET -0.172586 -0.038673 0.000001
						CHANNELS 3 Xrotation Yrotation Zrotation
						JOINT lowArm.L
						{
							OFFSET -0.288563 0.000000 0.000000
							CHANNELS 3 Xrotation Yrotation Zrotation
							JOINT hand.L
							{
								OFFSET -0.283371 0.000000 0.000000
								CHANNELS 3 Xrotation Yrotation Zrotation
								JOINT finger.L
								{
									OFFSET -0.076868 0.000000 0.000000
									CHANNELS 3 Xrotation Yrotation Zrotation
									End Site
									{
										OFFSET -0.068083 0.000000 0.000000
									}
								}
								JOINT thump.L
								{
									OFFSET -0.040973 0.025801 0.000000
									CHANNELS 6 Xposition Yposition Zposition Xrotation Yrotation Zrotation
									End Site
									{
										OFFSET 0.000000 0.101950 0.000000
									}
								}
							}
						}
					}
				}
				JOINT shoulder.R
				{
					OFFSET 0.195757 0.038275 0.182789
					CHANNELS 6 Xposition Yposition Zposition Xrotation Yrotation Zrotation
					JOINT upperArm.R
					{
						OFFSET 0.172586 -0.038673 0.000001
						CHANNELS 3 Xrotation Yrotation Zrotation
						JOINT lowArm.R
						{
							OFFSET 0.288563 0.000000 0.000000
							CHANNELS 3 Xrotation Yrotation Zrotation
							JOINT hand.R
							{
								OFFSET 0.283371 0.000000 0.000000
								CHANNELS 3 Xrotation Yrotation Zrotation
								JOINT finger.R
								{
									OFFSET 0.076868 0.000000 0.000000
									CHANNELS 3 Xrotation Yrotation Zrotation
									End Site
									{
										OFFSET 0.068083 0.000000 0.000000
									}
								}
								JOINT thump.R
								{
									OFFSET 0.040973 0.025801 0.000000
									CHANNELS 6 Xposition Yposition Zposition Xrotation Yrotation Zrotation
									End Site
									{
										OFFSET 0.000000 0.101950 0.000000
									}
								}
							}
						}
					}
				}
			}
		}
		JOINT upperLeg.L
		{
			OFFSET -0.154966 -0.029210 -0.029855
			CHANNELS 6 Xposition Yposition Zposition Xrotation Yrotation Zrotation
			JOINT lowerLeg.L
			{
				OFFSET -0.037951 0.070906 -0.543962
				CHANNELS 3 Xrotation Yrotation Zrotation
				JOINT foot.L
				{
					OFFSET -0.018636 -0.071669 -0.366804
					CHANNELS 3 Xrotation Yrotation Zrotation
					End Site
					{
						OFFSET -0.004380 0.218937 -0.029225
					}
				}
			}
		}
		JOINT upperLeg.R
		{
			OFFSET 0.154966 -0.029210 -0.029855
			CHANNELS 6 Xposition Yposition Zposition Xrotation Yrotation Zrotation
			JOINT lowerLeg.R
			{
				OFFSET 0.037951 0.070906 -0.543962
				CHANNELS 3 Xrotation Yrotation Zrotation
				JOINT foot.R
				{
					OFFSET 0.018636 -0.071669 -0.366804
					CHANNELS 3 Xrotation Yrotation Zrotation
					End Site
					{
						OFFSET 0.004380 0.218937 -0.029225
					}
				}
			}
		}
	}
}
MOTION
Frames: 7
Frame Time: 0.041667
-0.211553 0.393897 0.236968 -0.002654 0.000000 -0.000000 -0.192917 0.630369 0.778434 0.000000 0.000000 -0.000000 0.211553 -0.304621 0.135467 -22.593197 -0.000000 -0.000000 0.192917 0.630369 0.778434 0.000000 0.000000 0.000000 -0.000000 -0.000085 0.999317 -3.705901 0.000000 -0.000000 0.000001 0.000000 -0.000000 -0.000001 -0.000000 -0.000000 -0.000000 -0.000000 0.000000 -0.195757 0.038275 0.182789 -2.007611 -0.285626 -9.064823 -41.288070 22.231444 -55.359271 77.420850 0.000003 -0.000006 -0.000003 0.000002 -0.000003 0.000000 0.000003 -0.000001 -0.040973 0.025801 -0.000000 0.000003 -0.000000 -0.000001 0.195757 0.038275 0.182789 -2.873178 0.310245 12.934363 16.443539 -3.811678 71.709446 89.619267 -0.135760 0.134867 -0.000000 -0.000000 -0.000001 -0.000000 -0.000001 -0.000001 0.040973 0.025801 -0.000000 -0.000000 -0.000000 -0.000000 -0.154966 -0.029210 -0.029855 45.098086 0.958163 -0.203119 -28.352397 -2.012493 1.292792 -13.017554 1.399001 -1.286412 0.154966 -0.029211 -0.029855 -7.351218 -0.898700 -2.825646 -17.101315 1.138764 -0.900639 5.764030 -0.070932 0.693432 
-0.211553 0.392960 0.233180 -0.012526 0.000000 -0.000000 -0.192917 0.630369 0.778434 0.000000 0.000000 -0.000000 0.211553 -0.308353 0.138477 -23.568480 -0.000000 -0.000000 0.192917 0.630369 0.778434 0.000000 0.000000 0.000000 -0.000000 -0.000330 0.997362 -3.705901 0.000000 -0.000000 0.000001 0.000000 -0.000000 -0.000001 -0.000000 -0.000000 -0.000000 -0.000000 0.000000 -0.195757 0.038275 0.182790 -2.007611 -0.285626 -9.064823 -41.135040 21.944088 -55.720963 77.709822 0.000005 -0.000007 0.000002 -0.000002 -0.000003 -0.000002 -0.000000 -0.000002 -0.040973 0.025801 -0.000000 0.000001 -0.000003 -0.000002 0.195757 0.038275 0.182790 -2.873178 0.310245 12.934363 16.443539 -3.811678 71.709446 88.515673 -0.534968 0.521291 -0.000000 -0.000000 0.000000 -0.000000 0.000000 -0.000001 0.040973 0.025801 -0.000000 -0.000000 0.000000 0.000000 -0.154966 -0.029210 -0.029855 44.841175 0.948572 -0.167614 -27.951596 -1.980135 1.281808 -13.171934 1.395671 -1.292322 0.154966 -0.029210 -0.029855 -7.082443 -0.981066 -2.810923 -18.586369 1.249434 -0.962114 6.012343 -0.094104 0.647334 
-0.211553 0.391282 0.227202 -0.032478 0.000000 -0.000000 -0.192917 0.630369 0.778434 0.000000 0.000000 -0.000000 0.211553 -0.314243 0.143229 -25.114563 -0.000000 -0.000000 0.192917 0.630369 0.778434 0.000000 0.000000 0.000000 -0.000000 -0.000715 0.994277 -3.705901 0.000000 -0.000000 0.000001 0.000000 -0.000000 -0.000001 -0.000000 -0.000000 -0.000000 -0.000000 0.000000 -0.195757 0.038275 0.182790 -2.007611 -0.285626 -9.064823 -40.881418 21.478968 -56.301642 78.163551 0.000005 -0.000006 0.000001 -0.000002 -0.000001 -0.000002 -0.000002 -0.000001 -0.040973 0.025801 0.000000 -0.000001 -0.000003 -0.000002 0.195757 0.038275 0.182790 -2.873178 0.310245 12.934363 16.443539 -3.811678 71.709446 86.731026 -1.198107 1.131638 0.000000 0.000000 0.000000 -0.000000 0.000000 -0.000001 0.040974 0.025801 -0.000000 0.000000 0.000001 -0.000001 -0.154966 -0.029211 -0.029855 44.433741 0.934003 -0.112672 -27.342765 -1.931130 1.264690 -13.394177 1.390659 -1.301995 0.154966 -0.029210 -0.029855 -6.717606 -1.105818 -2.791305 -20.799106 1.417203 -1.048352 6.325792 -0.124286 0.570536 
-0.211553 0.388772 0.219308 -0.065375 0.000000 -0.000000 -0.192917 0.630369 0.778434 0.000000 0.000000 -0.000000 0.211553 -0.322021 0.149505 -27.168324 -0.000000 -0.000000 0.192917 0.630369 0.778434 0.000000 0.000000 0.000000 -0.000000 -0.001225 0.990202 -3.705901 0.000000 -0.000000 0.000001 0.000000 -0.000000 -0.000001 -0.000000 -0.000000 -0.000000 -0.000000 0.000000 -0.195757 0.038275 0.182790 -2.007611 -0.285626 -9.064823 -40.529270 20.844038 -57.084238 78.758290 0.000006 -0.000007 0.000002 -0.000001 -0.000003 0.000002 0.000000 -0.000002 -0.040973 0.025801 0.000000 0.000005 -0.000001 -0.000003 0.195757 0.038275 0.182790 -2.873178 0.310245 12.934363 16.443539 -3.811678 71.709446 84.291651 -2.138742 1.935657 0.000000 -0.000000 0.000001 -0.000000 -0.000001 0.000001 0.040974 0.025801 -0.000000 0.000000 -0.000001 0.000001 -0.154966 -0.029210 -0.029855 43.891957 0.915442 -0.041801 -26.571647 -1.869328 1.242265 -13.657412 1.384204 -1.315114 0.154966 -0.029210 -0.029855 -6.332145 -1.262479 -2.771591 -23.512376 1.627275 -1.145165 6.615179 -0.153519 0.463261 
-0.211553 0.385333 0.209770 -0.114081 0.000000 -0.000000 -0.192917 0.630369 0.778434 0.000000 0.000000 -0.000000 0.211553 -0.331417 0.157086 -29.666066 -0.000000 -0.000000 0.192917 0.630369 0.778434 0.000000 0.000000 0.000000 -0.000000 -0.001840 0.985280 -3.705901 0.000000 -0.000000 0.000001 0.000000 -0.000000 -0.000001 -0.000000 -0.000000 -0.000000 -0.000000 0.000000 -0.195757 0.038275 0.182789 -2.007611 -0.285626 -9.064823 -40.081155 20.045097 -58.052018 79.470091 0.000005 -0.000009 0.000003 -0.000003 -0.000004 -0.000003 -0.000002 -0.000005 -0.040973 0.025801 0.000000 0.000000 -0.000005 -0.000004 0.195757 0.038275 0.182789 -2.873178 0.310245 12.934363 16.443539 -3.811678 71.709446 81.214597 -3.379254 2.897346 0.000001 0.000001 -0.000001 0.000001 0.000001 0.000001 0.040973 0.025801 0.000000 0.000001 0.000001 0.000000 -0.154966 -0.029210 -0.029855 43.231887 0.893865 0.041534 -25.683408 -1.798519 1.215407 -13.935278 1.376531 -1.331314 0.154966 -0.029210 -0.029855 -5.990658 -1.442056 -2.756358 -26.527562 1.865808 -1.240955 6.809415 -0.174737 0.327526 
-0.211553 0.380874 0.198864 -0.181463 0.000000 -0.000000 -0.192917 0.630369 0.778434 0.000000 0.000000 -0.000000 0.211553 -0.342163 0.165755 -32.541948 -0.000000 -0.000000 0.192917 0.630369 0.778434 0.000000 0.000000 0.000000 -0.000000 -0.002544 0.979650 -3.705901 0.000000 -0.000000 0.000001 0.000000 -0.000000 -0.000001 -0.000000 -0.000000 -0.000000 -0.000000 0.000000 -0.195757 0.038275 0.182790 -2.007611 -0.285626 -9.064823 -39.539750 19.086445 -59.188159 80.275172 0.000009 -0.000012 0.000005 -0.000003 -0.000000 -0.000000 0.000000 0.000001 -0.040973 0.025801 -0.000000 0.000004 -0.000005 0.000002 0.195757 0.038275 0.182790 -2.873178 0.310245 12.934363 16.443539 -3.811678 71.709446 77.513549 -4.946145 3.971545 0.000000 -0.000001 -0.000001 0.000001 0.000001 -0.000002 0.040974 0.025801 -0.000000 0.000001 0.000001 -0.000003 -0.154966 -0.029210 -0.029855 42.469952 0.870346 0.133966 -24.723985 -1.722515 1.185166 -14.200987 1.367978 -1.350275 0.154966 -0.029210 -0.029855 -5.741286 -1.637443 -2.749605 -29.685928 2.120697 -1.327699 6.862766 -0.182530 0.167646 
-0.211553 0.375299 0.186862 -0.270385 0.000000 -0.000000 -0.192917 0.630369 0.778434 0.000000 0.000000 -0.000000 0.211553 -0.353987 0.175295 -35.726862 -0.000000 -0.000000 0.192917 0.630369 0.778434 0.000000 0.000000 0.000000 -0.000000 -0.003318 0.973456 -3.705901 0.000000 -0.000000 0.000001 0.000000 -0.000000 -0.000001 -0.000000 -0.000000 -0.000000 -0.000000 0.000000 -0.195757 0.038275 0.182789 -2.007611 -0.285626 -9.064823 -38.907749 17.971568 -60.475335 81.150181 0.000005 -0.000010 -0.000002 -0.000001 0.000002 -0.000000 -0.000000 -0.000000 -0.040973 0.025801 -0.000000 0.000003 -0.000001 0.000000 0.195757 0.038275 0.182789 -2.873178 0.310245 12.934363 16.443539 -3.811678 71.709446 73.204253 -6.864043 5.100825 -0.000003 -0.000000 -0.000001 -0.000003 -0.000001 -0.000000 0.040974 0.025801 -0.000000 -0.000004 -0.000000 -0.000000 -0.154966 -0.029210 -0.029855 41.623084 0.846120 0.232287 -23.740764 -1.645160 1.152860 -14.426842 1.359059 -1.371790 0.154966 -0.029210 -0.029855 -5.615866 -1.843171 -2.754654 -32.865730 2.381737 -1.400710 6.753360 -0.173423 -0.009981 
